<?xml version="1.0" encoding="UTF-8" standalone="no"?>
<svg xmlns="http://www.w3.org/2000/svg" xmlns:xlink="http://www.w3.org/1999/xlink" fill="none" version="1.1" width="700" height="700" viewBox="392 29 700 700"><g id="document"  fill-rule="nonzero" font-family="none" font-weight="none" font-size="none"><rect x="392" y="20.71429" transform="scale(1,1.4)" width="700" height="500" id="Shape-1-1"/></g><g fill="#555" fill-rule="nonzero" stroke="#555" stroke-width="1" stroke-linecap="butt" stroke-linejoin="miter" stroke-miterlimit="10" font-family="none" font-weight="none" font-size="none"><g id="stage"><g id="layer1-1"><g id="Group-1"><path d="M742.22223,99.11111c-154.63973,0 -280,125.36027 -280,280c0,154.63973 125.36027,280 280,280c154.63973,0 280,-125.36027 280,-280c0,-154.63973 -125.36027,-280 -280,-280zM709.68343,205.54985c8.33351,-8.38826 19.66909,-13.10536 31.49323,-13.10536c11.82414,0 23.15973,4.7171 31.49324,13.10536c8.40608,8.29601 13.06089,19.66426 12.887,31.4734c-0.17695,24.4212 -20.0242,44.12516 -44.44604,44.12516c-24.42184,0 -44.26908,-19.70396 -44.44603,-44.12516c-0.16534,-11.83351 4.54224,-23.21443 13.0186,-31.4734zM821.57563,565.77778h-158.7068v-58.98667h38.8836v-138.07733h-38.8836v-58.98433h120.61653v197.06166h38.09027z" id="CompoundPath-1"/></g></g></g></g></svg>