{
	"asset":{
		"generator":"Khronos glTF Blender I/O v4.4.55",
		"version":"2.0"
	},
	"scene":0,
	"scenes":[
		{
			"name":"Scene",
			"nodes":[
				0
			]
		}
	],
	"nodes":[
		{
			"mesh":0,
			"name":"Plane.005",
			"rotation":[
				-0.37880682945251465,
				0.7019095420837402,
				0.5049529075622559,
				0.32992562651634216
			],
			"scale":[
				-0.4015102982521057,
				-0.4227205216884613,
				-0.4227207601070404
			],
			"translation":[
				2.1440353393554688,
				20.92495346069336,
				-1.8492953777313232
			]
		}
	],
	"materials":[
		{
			"doubleSided":true,
			"name":"Material.002",
			"pbrMetallicRoughness":{
				"baseColorFactor":[
					0.002111179754137993,
					0.8078747987747192,
					0,
					1
				],
				"metallicFactor":0
			}
		},
		{
			"doubleSided":true,
			"name":"Material",
			"pbrMetallicRoughness":{
				"baseColorFactor":[
					0.07398511469364166,
					0.04976193606853485,
					0.005744015797972679,
					1
				],
				"metallicFactor":0,
				"roughnessFactor":0.5
			}
		}
	],
	"meshes":[
		{
			"name":"Plane.005",
			"primitives":[
				{
					"attributes":{
						"POSITION":0,
						"NORMAL":1,
						"TEXCOORD_0":2
					},
					"indices":3,
					"material":0
				},
				{
					"attributes":{
						"POSITION":4,
						"NORMAL":5,
						"TEXCOORD_0":6
					},
					"indices":7,
					"material":1
				}
			]
		}
	],
	"accessors":[
		{
			"bufferView":0,
			"componentType":5126,
			"count":14271,
			"max":[
				47.50376892089844,
				15.60386848449707,
				46.92529296875
			],
			"min":[
				-27.635608673095703,
				-59.55757141113281,
				-66.58064270019531
			],
			"type":"VEC3"
		},
		{
			"bufferView":1,
			"componentType":5126,
			"count":14271,
			"type":"VEC3"
		},
		{
			"bufferView":2,
			"componentType":5126,
			"count":14271,
			"type":"VEC2"
		},
		{
			"bufferView":3,
			"componentType":5123,
			"count":28350,
			"type":"SCALAR"
		},
		{
			"bufferView":4,
			"componentType":5126,
			"count":51,
			"max":[
				-2.2472496032714844,
				5.2501373291015625,
				50.90635681152344
			],
			"min":[
				-10.31796646118164,
				-2.805788278579712,
				39.25001525878906
			],
			"type":"VEC3"
		},
		{
			"bufferView":5,
			"componentType":5126,
			"count":51,
			"type":"VEC3"
		},
		{
			"bufferView":6,
			"componentType":5126,
			"count":51,
			"type":"VEC2"
		},
		{
			"bufferView":7,
			"componentType":5123,
			"count":135,
			"type":"SCALAR"
		}
	],
	"bufferViews":[
		{
			"buffer":0,
			"byteLength":171252,
			"byteOffset":0,
			"target":34962
		},
		{
			"buffer":0,
			"byteLength":171252,
			"byteOffset":171252,
			"target":34962
		},
		{
			"buffer":0,
			"byteLength":114168,
			"byteOffset":342504,
			"target":34962
		},
		{
			"buffer":0,
			"byteLength":56700,
			"byteOffset":456672,
			"target":34963
		},
		{
			"buffer":0,
			"byteLength":612,
			"byteOffset":513372,
			"target":34962
		},
		{
			"buffer":0,
			"byteLength":612,
			"byteOffset":513984,
			"target":34962
		},
		{
			"buffer":0,
			"byteLength":408,
			"byteOffset":514596,
			"target":34962
		},
		{
			"buffer":0,
			"byteLength":270,
			"byteOffset":515004,
			"target":34963
		}
	],
	"buffers":[
		{
			"byteLength":515276,
			"uri":"scene.bin"
		}
	]
}
