{
	"asset":{
		"generator":"Khronos glTF Blender I/O v4.4.55",
		"version":"2.0"
	},
	"scene":0,
	"scenes":[
		{
			"name":"Scene",
			"nodes":[
				0
			]
		}
	],
	"nodes":[
		{
			"mesh":0,
			"name":"Plane.016",
			"rotation":[
				0,
				-1,
				0,
				7.549790126404332e-08
			]
		}
	],
	"materials":[
		{
			"doubleSided":true,
			"name":"Material.002",
			"pbrMetallicRoughness":{
				"baseColorFactor":[
					0,
					0.8076666593551636,
					0.03752912953495979,
					1
				],
				"metallicFactor":0
			}
		}
	],
	"meshes":[
		{
			"name":"Plane.017",
			"primitives":[
				{
					"attributes":{
						"POSITION":0,
						"NORMAL":1,
						"TEXCOORD_0":2
					},
					"indices":3,
					"material":0
				}
			]
		}
	],
	"accessors":[
		{
			"bufferView":0,
			"componentType":5126,
			"count":464,
			"max":[
				6.120847225189209,
				11.08399772644043,
				2.614018678665161
			],
			"min":[
				-6.557375907897949,
				-0.527428388595581,
				-3.9184043407440186
			],
			"type":"VEC3"
		},
		{
			"bufferView":1,
			"componentType":5126,
			"count":464,
			"type":"VEC3"
		},
		{
			"bufferView":2,
			"componentType":5126,
			"count":464,
			"type":"VEC2"
		},
		{
			"bufferView":3,
			"componentType":5123,
			"count":1362,
			"type":"SCALAR"
		}
	],
	"bufferViews":[
		{
			"buffer":0,
			"byteLength":5568,
			"byteOffset":0,
			"target":34962
		},
		{
			"buffer":0,
			"byteLength":5568,
			"byteOffset":5568,
			"target":34962
		},
		{
			"buffer":0,
			"byteLength":3712,
			"byteOffset":11136,
			"target":34962
		},
		{
			"buffer":0,
			"byteLength":2724,
			"byteOffset":14848,
			"target":34963
		}
	],
	"buffers":[
		{
			"byteLength":17572,
			"uri":"scene.bin"
		}
	]
}
